<svg xmlns="http://www.w3.org/2000/svg" xml:space="preserve" width="487" height="81" style="shape-rendering:geometricPrecision;text-rendering:geometricPrecision;image-rendering:optimizeQuality;fill-rule:evenodd;clip-rule:evenodd" viewBox="0 0 497.497 82.839"><defs><style>.fil1{fill:#fff200;fill-rule:nonzero}</style></defs><g id="Capa_x0020_1"><path d="M3.746 74.346c2.114 0 3.747-1.729 3.747-3.939v-23.63h14.793c12.103 0 20.268-7.493 20.268-18.54 0-10.95-8.165-18.347-20.268-18.347H3.938C1.633 9.89 0 11.619 0 13.828v56.579c0 2.21 1.537 3.939 3.746 3.939zm3.747-34.294V16.614h14.601c7.876 0 12.679 4.515 12.679 11.719 0 7.301-4.803 11.719-12.679 11.719H7.493zM58.98 73.289h30.547c2.017 0 3.458-1.537 3.458-3.362 0-1.921-1.441-3.362-3.458-3.362H62.534V12.772c0-2.21-1.633-3.939-3.746-3.939-2.209 0-3.746 1.729-3.746 3.939v56.579c0 2.209 1.633 3.938 3.938 3.938zm95.675-4.995-24.303-56.867c-.769-1.729-1.921-2.594-3.554-2.594-1.633 0-2.786.865-3.554 2.594L98.941 68.294c-.384.96-.577 1.729-.577 2.401 0 1.922 1.633 3.651 3.651 3.651 1.633 0 2.882-.961 3.554-2.498l4.803-11.431h32.564l5.091 11.431c.768 1.537 1.921 2.498 3.65 2.498 1.921 0 3.651-1.729 3.651-3.651 0-.672-.193-1.441-.673-2.401zm-27.857-48.222 13.256 33.621h-26.896l13.64-33.621zm78.672-7.588c0-2.018-1.633-3.651-3.746-3.651-1.729 0-2.594.673-3.65 2.21l-17.867 29.394-17.867-29.394c-1.057-1.633-2.017-2.21-3.651-2.21-2.209 0-3.842 1.537-3.842 3.554 0 .769.288 1.73 1.057 2.882l20.46 33.333v21.805c0 2.21 1.537 3.939 3.747 3.939 2.113 0 3.746-1.729 3.746-3.939V48.794l20.653-33.525c.672-1.056.96-1.825.96-2.785z" style="fill:#00aeef;fill-rule:nonzero"/><g id="_2436858430912"><path class="fil1" d="M294.678 38.647c.264-1.233 1.057-2.115 1.762-3.084a39.176 39.176 0 0 1 4.317-4.229c3.26-2.467 6.256-5.022 9.78-7.137 2.291-1.322 4.318-2.996 6.785-4.229 1.762-.794 3.26-1.939 4.846-2.38 1.322-.528 1.762-1.145 2.027-2.114.088-.353.176-.793.176-1.234.881.265 1.85.353 2.467.617.529.264 1.057.264 1.674 0 .264-.176.705-.264 1.234-.44 1.85-.617 3.788-1.41 5.903-1.41.176-.088.617 0 1.145.088-1.145 1.145-2.378 1.938-3.436 2.819-3.877 2.556-7.666 5.375-11.454 7.842-1.498.969-2.555 2.203-2.467 4.053 0 .177 0 .265-.088.617-.089 1.322-.353 2.82-.617 4.229 0 .177.264.529.264.617h.441c2.202-1.145 4.581-2.291 6.696-3.877.176-.088.265-.176.441-.176 1.85-.44 3.172-1.586 4.581-2.379 2.644-1.586 5.023-3.789 7.49-5.551 1.498-1.145 2.731-2.291 3.7-3.877.705-1.321.705-2.819-.264-4.053-1.145-1.233-1.938-2.379-2.996-3.7-.176-.177-.44-.441-.616-.793-.793-.705-1.675-.882-2.732-.441h-.617c-.088-.264-.176-.529-.528-.969-1.058.264-2.291.264-3.26.352-4.142.617-7.754 1.939-11.367 3.701-2.114.969-4.229 1.85-6.344 2.908-4.317 2.114-8.282 4.581-12.159 7.224-3.965 2.732-7.93 5.728-10.485 9.605-1.498 2.203-2.027 4.317-.793 6.872 1.233 2.379 3.172 4.318 5.992 5.728 4.141 2.026 8.634 3.612 13.128 4.758 2.908.881 5.727 1.674 8.635 2.643.352 0 .617.352 1.145.617-.705.705-1.145 1.233-1.762 1.938.352.441.617.969.969 1.41.441.44 1.058.616 1.586.793-1.41 1.145-2.731.088-3.965.352-.969-1.233.882-.705.97-1.586-.441-.088-.97-.176-1.322-.088-1.234 0-1.146 1.145-1.674 1.763-.705.088-1.322.352-1.939.616-.528 0-.881.088-1.233.264-2.027.793-3.877 1.851-5.816 2.82-.793.264-1.497.705-1.85 1.674-.176.441-.529.793-.881 1.234-.264.352-.969.088-1.146-.353 0-.176.441-.352 0-.616-.704.088-1.233.528-1.762.616-1.057.441-1.497 1.234-1.497 2.203v2.291c-.265.176-.706.264-.97.44-.176.089-.44.529-.705.705-.705.177-1.233-.088-1.233-.705-.176-.793.352-1.321 1.145-1.585-.088-.441-.264-.794-.617-1.322a13.358 13.358 0 0 0-3.788 2.467c-1.146.793-1.498 1.85-1.146 3.172.441 1.145.881 2.115 2.203 2.555 1.322.441 2.467 1.057 3.348 1.938.969-.352 1.763-.704 2.732-.792 1.586-.177 3.084-.617 4.581-1.322 2.203-1.057 4.406-2.203 6.609-3.348 3.26-1.498 6.432-3.26 9.516-5.023a23.782 23.782 0 0 0 5.639-4.582c1.586-1.762 1.85-3.965.44-5.903-.793-1.057-1.85-2.203-2.467-3.436-1.145-1.586-2.467-2.732-4.317-3.613-1.146-.617-2.203-1.321-3.436-1.233-.353 0-.529-.176-.705-.353-.529-.528-1.41-.705-2.115-.793-2.731-.881-5.463-1.586-8.194-2.291-2.115-.616-4.23-1.586-6.432-1.938-1.234-.264-2.115-.705-3.172-1.586zm39.914-26.962c-1.41-.088-2.467-.529-2.643-1.85-.089-.176.088-.441.176-.617.176-.176.528-.264.705 0 1.057.441 1.586 1.234 1.762 2.467zm-3.877 13.569c-1.41.529-2.467.264-3.789.264.352-.793 1.586-.264 1.586-1.145.969-.176 1.586 0 2.203.881zm-3.525-2.379c.353-.528.882-.881 1.498-.793.177 0 .793.265.793.441 0 .264-.352.528-.705.616-.44.089-1.057.265-1.586-.264zm-29.517 46.082c.353-.705 1.146-1.057 2.027-1.145.176.528.176.969-.529 1.057-.44.088-.969 0-1.498.088zm24.143-56.038c-.177.264-.177.44-.353.528-.176.353-.352.353-.616.088-.177-.088-.265-.44-.177-.616 0-.176.265-.617.441-.617.176.176.44.441.705.617zM299.7 65.697a2.574 2.574 0 0 1 1.321-1.586c.089 1.322-.352 1.674-1.321 1.586zm18.151-38.593c-2.115 1.322-3.789 2.644-5.199 4.318-.352.264-.352.705-.352.969.44.617.881 1.41 1.586 2.027.352.705 1.145.793 2.026.881.176-.441.264-.881.264-1.234 0-.705.177-1.41.618-1.938 1.409-1.586 1.145-3.172 1.057-5.023zm40.619-12.247c.881.176 1.409.705 1.762 1.498-1.145.088-1.41 0-1.851-1.322-.352.353-.792.441-.969.793-.44 1.058-1.762 1.674-1.498 3.172 0 0-.088.176-.176.176-.44-.088-.616 0-.705.353-.44 1.057-1.409 1.322-2.379 1.498-.528.176-1.145.264-1.674.44-2.995.882-5.815 1.763-8.546 3.172-2.027.881-3.965 1.763-5.64 2.82a26.355 26.355 0 0 0-3.7 3.084c-.969.881-.793 1.674 0 2.731.969 1.234 2.202 1.939 3.612 2.115 1.763-.969 3.525-2.027 5.111-2.82-.088-.44-.088-.616-.088-.969 1.057.088 2.026.441 2.819-.617.176-.088.441 0 .705-.088.529-.264.969-.44 1.322-.616-.265-.177-.617-.177-.881-.089-.705 0-.705 0-.705-.881 1.233-.176 2.379.353 3.436.881-.44.969-.969 1.763-1.41 2.82.881.176 1.939.176 2.467.705.441.617 1.322.881 1.851 1.321-.529.617-.97.617-1.498.265-.176-.176-.529-.353-.705-.353-1.145-.088-2.027-.176-3.084-.176a.685.685 0 0 0-.352.353c-4.318 7.489-8.283 15.155-11.102 23.173-1.498 4.053-3.172 7.93-4.141 11.983-.177 1.057-.353 2.026-.353 3.084-.176 1.409.353 2.555 1.586 3.524.969.617 2.026 1.41 3.524 1.234.265 0 .617.176.97.264.44-.264.881-.617 1.233-.881.705-.529.705-1.058.264-1.674-.264-.353-.44-.617-.616-.793.088-.529.088-.881.176-1.058.793-1.85 1.498-3.7 2.379-5.462.881-2.291 1.938-4.494 2.996-6.697 1.586-3.436 3.26-6.872 4.846-10.221 1.762-3.877 3.7-7.753 5.551-11.63 1.938-3.789 3.965-7.754 5.815-11.631.529-1.234 1.234-1.674 2.467-1.85 1.41-.088 2.82-.176 4.23-.529 1.498-.176 3.084.088 4.669-.441.089-.176.529 0 .617 0 .441.177.617.265.969.265 1.234 0 1.851-.969 1.234-2.115-.264-.352-.529-.969-.881-1.233-.793-.617-1.41-1.41-1.939-2.291-.352-.881-1.057-1.234-2.026-1.322h-4.318c1.234-1.674 1.675-3.524 2.908-5.287a3.82 3.82 0 0 0 1.145-2.467c-.352-.264-.969-.44-1.497-.793 0-.088.088-.176.088-.264.705.088 1.409.088 2.115.176.352-.528.528-1.057.792-1.586.882-1.674 1.851-3.172 2.82-4.67.529-.793.441-1.233-.353-2.114-.352-.265-.528-.529-.792-.881-.97-.97-1.41-1.498-2.996 0-.088.264-.265.44-.353.528-1.233 1.674-2.467 3.172-3.612 4.758-1.851 2.467-3.701 5.111-5.463 7.666-.088.264-.088.705-.176.969zm-16.829 36.478c-.529 0-.882-.529-.882-.969.089-.617.617-1.322 1.058-1.322.705 0 1.233.793 1.145 1.498 0 .441-.44.793-1.321.793zm5.11-11.278c-.088.352-.264.705-.352 1.057-.617-.176-1.234-.264-1.675-.352-.088-.177-.176-.177-.176-.265.176-.176.176-.528.353-.793.352 0 .616.177.969.265.264.088.529.088.881.088zm-11.19 22.82c-1.057.265-1.057.265-1.762-.704.881-.265.881-.265 1.762.704zm16.653-27.754c.44.176.881.176 1.498.44-.617.705-.882.793-1.498.529-.353-.176-.441-.705 0-.969zm1.938-12.688c-.088-.088-.264-.088-.44-.176-.088 0-.088-.177-.088-.265 0-.088 0-.264.088-.264.264-.089.528-.177.881-.089.088 0 .088.265.264.353 0 .088-.176.265-.264.265-.088.088-.265.088-.441.176zm8.459 27.931c-.264.264-.529.352-.529.44-.264.529-.616.881-.881 1.322-.616 1.233-1.41 1.938-2.555 2.203a60.019 60.019 0 0 0-5.022 1.233 48.565 48.565 0 0 0-2.82 1.058c-.264.088-.793.352-.793 1.057.352.352.617.969 1.146 1.498.793.881 1.233.881 2.467.176h.352c.176 0 .529.264.793.44.353.089.705.177.617.706 0 .088.617.176.881.176-.617.616-.969 1.498-1.233 2.379-.177.352 0 .705.352.969.793.793 1.498 1.057 2.555 1.057.881-1.145 1.586-2.291 2.291-3.348.353-.617.793-1.057 1.322-1.586.264-.176.705-.441 1.057-.441.705.088 1.498-.176 2.379-.176 3.26-.176 6.608-.881 10.045-1.233.705-.088 1.321-.353 2.202-.088v.44c-1.145 2.643-2.291 5.375-3.26 8.194a34.477 34.477 0 0 0-1.938 7.754c-.088 1.234 0 2.379.617 3.525 1.41 2.467 3.348 4.053 6.343 4.669.529.177.97-.176 1.41-.352 0-.969 0-1.057-.616-1.41-1.234-.969-1.322-2.203-.794-3.524.706-1.938 1.41-3.965 2.38-5.815 1.585-3.261 3.26-6.873 5.11-10.398.793-1.498 1.674-2.995 2.467-4.581 1.939-.088 3.789-.176 5.463-.264 1.41-.177 2.467-1.498 1.938-2.996-.44-.529-.704-1.146-1.057-1.675-.705-.44-1.145-1.233-1.498-1.938-.264-.529-.352-1.057 0-1.498.088-.44.353-.705.529-1.057 1.057-1.762 2.114-3.525 3.348-5.199 2.908-4.846 5.815-9.34 8.723-14.097 1.41-2.027 2.731-4.23 3.436-6.433.441-.969.617-2.026.882-2.907.088-.793-.177-1.498-.529-2.115a48.28 48.28 0 0 1-2.556-3.348c-.969-1.146-1.85-1.498-3.348-.969-.881.352-1.938.793-2.907 1.145-1.939 1.146-4.053 2.115-5.727 3.701-1.498.44-2.556 1.586-3.701 2.291-.529.264-1.057.44-1.234.969-.616.705-1.233.969-1.938 1.586-1.41.969-2.732 2.027-4.053 3.084-6.08 5.463-11.455 11.542-16.741 17.798-.969 1.498-2.203 3.084-3.348 4.494-.529.528-.529 1.41-1.322 1.762-.176.088-.176.264-.264.441.264.528.528.881.792 1.233.441-.088.794-.176 1.146-.44v1.321c-.352 0-.793-.088-1.234-.088 0 .088-.088.176 0 .264.088.353 0 .705-.44.794-.264.088-.617-.265-.617-.617-.088-.353-.088-.881-.088-1.586zm23.261-7.842c.617.088.793.264 1.057.352.089.177.089.177-.704 1.234h-1.234c0 .176-.264.264-.352.44-.705 1.41-1.675 2.82-2.467 4.23-.353.44-.617.881-1.234.969-4.141.705-8.194 1.586-12.424 2.291h-.881c.265-.969.97-1.498 1.41-2.203.705-.617 1.146-1.322 1.762-2.115a25.776 25.776 0 0 0-.704-1.85c.704 0 1.145 0 1.762-.088.528 0 .881-.264 1.233-.617 1.586-1.85 3.26-3.788 5.199-5.727-.265-1.145 0-2.203.704-3.084.706.176.706.176 1.058 1.146 1.674-1.498 3.348-3.172 4.934-4.582 1.674-1.498 3.436-2.996 5.111-4.494 1.674-1.41 3.436-2.819 5.374-3.965 1.851-1.233 3.525-2.731 5.639-3.789-.088 1.058-1.145 1.498-.881 2.379-.44.441-1.057.705-1.409 1.322-1.939 2.555-3.965 5.375-5.992 8.194-1.586 2.115-3.084 4.406-4.67 6.697-.264.264-.44.617-.705.969.265.176.441.264.705.44-.176.177-.176.353-.176.353-.441.176-.705.176-.881.353-.177.264-.177.528-.265.704-.176.176-.352.265-.969.441zm-8.458 29.165c-.441.881-1.058 1.145-1.674 1.233-.705 0-1.058-.352-1.41-.705.264-.352.705-.616 1.233-1.057.529-.088 1.058.441 1.851.529zm14.362-28.901c1.41 0 1.586.088 2.026 1.146-.176.088-.264.176-.44.176h-1.586c-.353-.441-.265-.881 0-1.322zm12.335-14.098c-1.233.177-1.762-.704-2.115-1.321.265-.441.529-.177.794 0 .44.352.969.793 1.321 1.321zm-35.068 16.742c-.617-.265-1.057-.441-1.322-1.058-.088-.088-.088-.352 0-.44.177-.177.353-.177.529-.177.264 0 .529.265.705.529.176.264.264.617.088 1.146zm2.203 10.925c-.176.089-.265.353-.529.353s-.616-.264-.528-.617c0-.176.352-.353.528-.441.088 0 .353.353.529.705zm29.693-22.027c-.44.528-.793.616-.969.176-.088 0-.088-.529 0-.529.441-.088.705.088.969.353zM433.769 40.057c.529-.088 1.234-.088 1.763-.176.352-.617 1.145-1.234 1.409-1.763.265-.969 1.234-.969 1.674-1.586h.088c1.498-2.026 2.908-3.877 4.406-5.551.441-.616.353-1.057.441-1.409.616-.529.969-.793 1.145-1.058 1.145-1.586 1.938-3.348 2.643-5.286.353-.969.265-2.203-.528-3.26.088-.177.44-.353.617-.794-.177-.176-.265-.616-.617-.792-1.146-1.058-2.203-2.203-3.525-3.084-.793-.793-1.938-.793-3.084-.353-1.321.441-2.555.969-3.7 1.41-.617.264-1.057.352-1.146.969.793.176 1.586.793 1.674 1.674 0 .088 0 .176-.088.617-.528-.088-1.057-.352-1.586-.441.089-.792-.352-1.321-1.233-1.674-1.146.794-2.291 1.41-3.525 2.203-1.233.793-2.467 1.586-3.7 2.556-.969.792-2.027 1.674-3.261 2.555 0-.265-.176-.353-.088-.441.177-.529.441-.969.617-1.41.617-1.498 1.234-3.084 1.851-4.581.088-.265 0-.882.176-1.058.969-1.145.881-2.379 1.057-3.701.088-.528-.088-1.057-.793-1.497-.793-.617-1.762-1.058-2.731-1.763-.793-.352-1.498-.264-2.027.441-.969 1.145-1.938 2.379-1.674 4.053-1.145.176-1.498.969-1.85 1.762a430.754 430.754 0 0 0-5.816 10.926c-.44 1.145-1.057 2.379-1.585 3.524-.529 1.234-1.146 2.38-1.675 3.437-.528 1.233-.881 2.467-1.41 3.612-.792 1.234-1.321 2.467-1.762 3.877-.969 2.115-1.85 4.494-2.819 6.697-.441 1.233-.881 2.467-1.234 3.612.264.617 1.322.705.793 1.498-.44-.088-.793-.176-1.057-.176-.088.176-.088.264-.176.352-.705 2.732-1.586 5.463-2.115 8.195a16.696 16.696 0 0 0-.529 4.141c0 1.233.617 2.467 1.674 3.348 1.234.881 2.556 1.233 4.23 1.233.44-.352.44-.792.352-1.233-.176-.793.088-1.586.441-2.291.176-.881.705-1.762.793-2.467.088-.793.793-1.41 1.057-2.291.176-.881.529-1.85.793-2.731.441-.881.969-1.763 1.322-2.556a43.962 43.962 0 0 0 1.85-4.229c1.41 0 2.555-.088 3.613-.176.264 1.85.704 3.525.704 5.198.177 1.719 1.146 3.305 1.41 5.081.617.265 1.234.353 1.763.529 0 .353-.089.353-.089.529-.264.793-.088 1.057.793 1.233.353.088.705.088 1.41.088a6.969 6.969 0 0 1-.705.808c-.44.265-1.233-.088-1.674.353.529 1.762 1.674 2.907 3.613 3.363 1.057.176 2.026 0 2.995.088 1.322.088 2.291-.632 3.437-1.161-.353-.44-.617-.792-.881-.88-1.146-.529-1.586-1.234-1.762-2.115-.265-.72-.529-1.425-1.234-1.777-.529-.176-.441-.705-.264-.969v-.529c-.441-.264-1.146-.264-1.234-.896.264 0 .529.088.969.191-.088-.279 0-.543-.176-.72-.176-.264-.617-.44-.705-.792-.088-.265 0-.705 0-1.058-.088-.793 0-1.424-.44-1.865-.353-.617-.177-1.233-.265-1.85-.176-.441-.616-.705-1.057-.969.264-.353.705-.72.617-1.161-.265-.704-.529-1.321-.529-2.114 0-.617.353-1.425.529-2.041 0-.265-.176-.353-.176-.793-.089-1.41-.177-2.732-.177-4.318 0-.352-.088-.969.705-1.41 1.145 1.058 0 2.556.969 3.613.176-.264.353-.441.705-.617.265.529.529.881.793 1.234 1.234.264 2.203-.176 3.084-.97.088-.264 0-.264 0-.528-.352 0-.793.088-.969.088-.441-.441-.617-.705-.881-.969-.264-.353-1.058-.441-.793-1.146 1.498.088 2.996.353 4.494 1.234 1.674-1.322 3.171-2.379 4.493-3.877a5.827 5.827 0 0 0-.617-.969zm-17.534-.088a5.125 5.125 0 0 0 1.146-1.322c1.057-1.145 2.026-2.115 2.819-3.172.353-.352.441-.529.441-1.145-.088-.881 0-.881 1.322-.793 1.85-1.763 3.788-3.437 5.727-5.111 1.85-1.41 3.788-2.819 5.727-4.053 1.85-1.322 3.701-2.467 5.815-3.348.441-.176.529-.529.881-.705.176-.176.353 0 .793 0-.176.352-.176.529-.264.705-.617.528-.617 1.41-.529 2.203.088.705.176 1.145 1.058 1.233.088 0 .088 0 .176.088.088 0 .176.088.176.088-.088.97 1.41 1.322 1.057 2.379l-.088.176c-.616-.176-1.145-.176-1.85-.352-.441-.088-1.057-.088-1.85-.176.352-.441.793-.793 1.145-1.234-.176-.088-.528-.264-.793-.264-.793 0-1.41.264-2.026.969-1.41 1.939-3.172 3.789-4.67 5.639-.353.441-.881.793-1.146 1.234.617.969.617.969-.088 1.498-.176-.176-.264-.265-.441-.353-.176 0-.264 0-.616-.088-.176.088-.264.441-.529.617-2.467 2.643-5.463 5.022-8.459 7.313-.616.529-1.057.969-1.057 1.762-1.145-.176-1.938.441-2.819.793-.793.617-1.763 1.146-2.996 1.939.617-2.555 2.379-4.406 1.938-6.52zm3.172-22.645c.705.176.705.705.793 1.058.177.264.089.704.089 1.057-.089 1.233.264 2.291 1.585 3.26-.264.352-.616.617-.881 1.145.176.177.529.617.705.881 0 .617-.44.705-.969.705-.529 0-.617-.352-.617-.881-.088-.528-.176-1.057-.264-1.498-.088-1.057 0-1.938-.441-2.907-.44-.881-.352-1.85 0-2.82zm1.498 12.248c-.793-1.322-.352-2.556-.528-4.054.616.441 1.057.617 1.145.882.088.969.176 2.114-.617 3.172zm-.176 3.436c-.088-.441-.088-.969-.176-1.322-.176-.529-.353-.793 0-1.321 1.145.088 1.41.352 1.41 1.233 0 .529-.089.969-.529 1.322-.176.088-.353.088-.705.088zm20.706-14.714c-1.234 1.233-1.938 1.321-2.908.792.97-.969 1.322-.969 2.908-.792zm-22.204 35.332c1.322.617 1.322.617.617 2.908-.177-.353-.353-.529-.617-.882V53.626zm.264-.617c-1.057.352-1.409-.264-1.674-.881.088-.176.176-.617.441-.617.176-.176.529-.44.705-.352.088 0 .44.352.528.705v1.145zm-4.405-18.591c1.233.264 1.41.528 1.322 1.057-.089.441-.177 1.057-.353 1.586-.705-.705-.793-1.586-.969-2.643zm5.903 29.517c.705-.088 1.146-.088 1.851-.265-.353.529-.617.97-.97 1.322a6.124 6.124 0 0 1-.881-1.057zm-3.348-16.036c.969-.265 1.322-.265 1.586.264.176.176 0 .441-.088.617-.176.352-.529.352-.705 0-.352-.265-.529-.529-.793-.881zm-2.379-14.979c.264.176.44.352.44.617.089.264-.176.528-.616.528-.176 0-.529-.264-.617-.44.264-.088.529-.441.793-.705zm-3.965 6.872c.705.617 1.057.881 1.586 1.234-.969.441-1.145.264-1.586-1.234zm24.495-19.913c.352.265.793.529 1.322.882-.177.264-.441.44-.617.352-.441-.088-.881-.264-.969-.881 0-.088.088-.176.264-.353zm-9.428 23.085c-.529.177-1.146.353-1.674-.176.705-.529.881-.529 1.674.176zm-5.639 6.168c-.176.705-.529.793-.881.617-.088-.088-.177-.352-.177-.441.265-.528.529-.264 1.058-.176zm-8.371-6.168c-.352 0-.705.177-.969 0-.264-.176-.44-.44 0-.881.264.176.529.265.617.441.176 0 .176.264.352.44zm30.487-19.913c-.088.441-.265.705-.793.441-.088 0-.176-.264-.265-.353.089-.088.177-.088.353-.088h.705zm-1.586 5.551c-.265 0-.529.177-.793.177-.088 0-.177-.177-.177-.265.177-.088.353-.176.705-.264 0 0 .089.264.265.352zM406.631 46.93c-.529.088-.793.264-.969.264-.176 0-.44-.264-.44-.441.264 0 .44-.176.616-.176s.353.176.793.353zm42.699-8.283c.264-1.233 1.057-2.115 1.762-3.084a39.176 39.176 0 0 1 4.317-4.229c3.261-2.467 6.256-5.022 9.781-7.137 2.29-1.322 4.317-2.996 6.784-4.229 1.763-.794 3.26-1.939 4.846-2.38 1.322-.528 1.763-1.145 2.027-2.114.088-.353.176-.793.176-1.234.881.265 1.85.353 2.467.617.529.264 1.057.264 1.674 0 .265-.176.705-.264 1.234-.44 1.85-.617 3.789-1.41 5.903-1.41.176-.088.617 0 1.146.088-1.146 1.145-2.379 1.938-3.437 2.819-3.876 2.556-7.665 5.375-11.454 7.842-1.498.969-2.555 2.203-2.467 4.053 0 .177 0 .265-.088.617-.088 1.322-.353 2.82-.617 4.229 0 .177.264.529.264.617h.441c2.203-1.145 4.582-2.291 6.696-3.877.176-.088.265-.176.441-.176 1.85-.44 3.172-1.586 4.582-2.379 2.643-1.586 5.022-3.789 7.489-5.551 1.498-1.145 2.731-2.291 3.701-3.877.705-1.321.705-2.819-.264-4.053-1.146-1.233-1.939-2.379-2.996-3.7-.177-.177-.441-.441-.617-.793-.793-.705-1.674-.882-2.732-.441h-.616c-.088-.264-.177-.529-.529-.969-1.057.264-2.291.264-3.26.352-4.141.617-7.754 1.939-11.366 3.701-2.115.969-4.23 1.85-6.344 2.908-4.318 2.114-8.283 4.581-12.16 7.224-3.965 2.732-7.93 5.728-10.485 9.605-1.498 2.203-2.026 4.317-.793 6.872 1.234 2.379 3.172 4.318 5.992 5.728 4.141 2.026 8.634 3.612 13.128 4.758 2.908.881 5.727 1.674 8.635 2.643.352 0 .617.352 1.146.617-.705.705-1.146 1.233-1.763 1.938.353.441.617.969.969 1.41.441.44 1.058.616 1.586.793-1.409 1.145-2.731.088-3.964.352-.97-1.233.881-.705.969-1.586-.441-.088-.969-.176-1.322-.088-1.234 0-1.145 1.145-1.674 1.763-.705.088-1.322.352-1.938.616-.529 0-.882.088-1.234.264-2.027.793-3.877 1.851-5.815 2.82-.793.264-1.498.705-1.851 1.674-.176.441-.528.793-.881 1.234-.264.352-.969.088-1.145-.353 0-.176.44-.352 0-.616-.705.088-1.234.528-1.763.616-1.057.441-1.497 1.234-1.497 2.203v2.291c-.265.176-.705.264-.969.44-.177.089-.441.529-.705.705-.705.177-1.234-.088-1.234-.705-.176-.793.352-1.321 1.145-1.585-.088-.441-.264-.794-.616-1.322a13.35 13.35 0 0 0-3.789 2.467c-1.145.793-1.498 1.85-1.145 3.172.44 1.145.881 2.115 2.202 2.555 1.322.441 2.467 1.057 3.348 1.938.97-.352 1.763-.704 2.732-.792 1.586-.177 3.084-.617 4.582-1.322 2.202-1.057 4.405-2.203 6.608-3.348 3.26-1.498 6.432-3.26 9.516-5.023a23.762 23.762 0 0 0 5.639-4.582c1.586-1.762 1.85-3.965.441-5.903-.793-1.057-1.851-2.203-2.467-3.436-1.146-1.586-2.468-2.732-4.318-3.613-1.145-.617-2.203-1.321-3.436-1.233-.353 0-.529-.176-.705-.353-.529-.528-1.41-.705-2.115-.793-2.731-.881-5.463-1.586-8.194-2.291-2.115-.616-4.229-1.586-6.432-1.938-1.234-.264-2.115-.705-3.172-1.586zm39.914-26.962c-1.41-.088-2.467-.529-2.643-1.85-.089-.176.088-.441.176-.617.176-.176.529-.264.705 0 1.057.441 1.586 1.234 1.762 2.467zm-3.877 13.569c-1.41.529-2.467.264-3.789.264.353-.793 1.586-.264 1.586-1.145.97-.176 1.586 0 2.203.881zm-3.524-2.379c.352-.528.881-.881 1.498-.793.176 0 .793.265.793.441 0 .264-.353.528-.705.616-.441.089-1.058.265-1.586-.264zm-29.518 46.082c.353-.705 1.146-1.057 2.027-1.145.176.528.176.969-.529 1.057-.44.088-.969 0-1.498.088zm24.143-56.038c-.176.264-.176.44-.352.528-.177.353-.353.353-.617.088-.177-.088-.265-.44-.177-.616 0-.176.265-.617.441-.617.176.176.441.441.705.617zm-22.116 52.778a2.572 2.572 0 0 1 1.322-1.586c.088 1.322-.353 1.674-1.322 1.586zm18.151-38.593c-2.115 1.322-3.789 2.644-5.199 4.318-.352.264-.352.705-.352.969.44.617.881 1.41 1.586 2.027.352.705 1.145.793 2.027.881.176-.441.264-.881.264-1.234 0-.705.176-1.41.617-1.938 1.409-1.586 1.145-3.172 1.057-5.023z"/></g><path d="M240.408 74.988c-5.535 0-10.147-4.612-10.147-13.837 0-11.992 3.69-15.221 3.69-15.221l16.604 23.523s-4.151 5.535-10.147 5.535zm31.364-33.67v-1.384h-17.066v1.384l7.38 2.767c0 6.919-3.228 11.992-3.228 11.992l-16.421-23.061c-2.029-2.768-5.719-7.841-5.719-12.454 0-5.073 3.229-8.302 6.919-8.302 10.608 0 14.759 16.143 14.759 16.143h3.69V10.876h-2.306s-3.229 1.845-5.074 5.074c0 0-5.073-5.996-12.914-5.996-12.454 0-18.911 6.457-18.911 14.298 0 5.074 2.398 9.225 4.613 12.454l5.073 7.379s-17.988 3.229-17.988 17.066c0 9.686 6.457 16.143 23.984 16.143 8.763 0 13.376-5.996 13.376-5.996 1.845 2.768 5.535 4.613 10.608 4.613h12.915v-1.384l-4.613-1.384-10.423-14.759s3.966-6.919 3.966-14.299l7.38-2.767z" style="fill:#fff;fill-rule:nonzero"/></g></svg>